<mxfile host="65bd71144e">
    <diagram id="p-liEgERdRvHNOwEDLbd" name="PÃ¡gina-1">
        <mxGraphModel dx="674" dy="328" grid="1" gridSize="10" guides="1" tooltips="1" connect="1" arrows="1" fold="1" page="1" pageScale="1" pageWidth="827" pageHeight="1169" math="0" shadow="0">
            <root>
                <mxCell id="0"/>
                <mxCell id="1" parent="0"/>
                <mxCell id="4" value="" style="edgeStyle=none;html=1;" edge="1" parent="1" source="2" target="3">
                    <mxGeometry relative="1" as="geometry"/>
                </mxCell>
                <mxCell id="2" value="Inicio" style="ellipse;whiteSpace=wrap;html=1;fillColor=#999900;" vertex="1" parent="1">
                    <mxGeometry x="220" y="10" width="110" height="70" as="geometry"/>
                </mxCell>
                <mxCell id="6" value="" style="edgeStyle=none;html=1;" edge="1" parent="1" source="3" target="5">
                    <mxGeometry relative="1" as="geometry"/>
                </mxCell>
                <mxCell id="3" value="x.y" style="shape=parallelogram;perimeter=parallelogramPerimeter;whiteSpace=wrap;html=1;fixedSize=1;fillColor=#0000FF;" vertex="1" parent="1">
                    <mxGeometry x="215" y="100" width="120" height="50" as="geometry"/>
                </mxCell>
                <mxCell id="9" value="" style="edgeStyle=none;html=1;" edge="1" parent="1" source="5" target="7">
                    <mxGeometry relative="1" as="geometry"/>
                </mxCell>
                <mxCell id="5" value="&lt;br&gt;s = x + y&lt;br&gt;r = x - y&lt;br&gt;m = x * y&lt;br&gt;d = x / y&lt;br&gt;de = x // y&lt;br&gt;m = x % y&lt;br&gt;p = x ** y" style="whiteSpace=wrap;html=1;aspect=fixed;fillColor=#CC99FF;" vertex="1" parent="1">
                    <mxGeometry x="210" y="180" width="120" height="120" as="geometry"/>
                </mxCell>
                <mxCell id="11" value="" style="edgeStyle=none;html=1;" edge="1" parent="1" source="7" target="10">
                    <mxGeometry relative="1" as="geometry"/>
                </mxCell>
                <mxCell id="7" value="s,r,m,d,de,m,p" style="shape=document;whiteSpace=wrap;html=1;boundedLbl=1;fillColor=#3399FF;" vertex="1" parent="1">
                    <mxGeometry x="210" y="330" width="120" height="80" as="geometry"/>
                </mxCell>
                <mxCell id="10" value="FIN" style="ellipse;whiteSpace=wrap;html=1;fillColor=#999999;" vertex="1" parent="1">
                    <mxGeometry x="220" y="430" width="110" height="70" as="geometry"/>
                </mxCell>
            </root>
        </mxGraphModel>
    </diagram>
</mxfile>